<?xml version="1.0" encoding="UTF-8" standalone="no"?>
<!-- Created with Inkscape (http://www.inkscape.org/) -->

<svg
   version="1.1"
   id="svg10249"
   width="693.33331"
   height="693.33331"
   viewBox="0 0 693.33331 693.33331"
   xmlns="http://www.w3.org/2000/svg"
   xmlnsSvg="http://www.w3.org/2000/svg">
  <defs
     id="defs10253">
    <clipPath
       clipPathUnits="userSpaceOnUse"
       id="clipPath10267">
      <path
         d="M 0,520 H 520 V 0 H 0 Z"
         id="path10265" />
    </clipPath>
  </defs>
  <g
     id="g10257"
     transform="matrix(1.3333333,0,0,-1.3333333,0,693.33333)">
    <circle
       style="fill:#ffffff;fill-opacity:1;stroke-width:0.75"
       id="path10353"
       cx="261.80508"
       cy="-255.38138"
       r="239.06779"
       transform="scale(1,-1)" />
    <g
       id="g10261"
       transform="matrix(1.2557872,0,0,1.2557872,-56.454465,-48.690073)">
      <g
         id="g10263"
         clip-path="url(#clipPath10267)">
        <g
           id="g10269"
           transform="translate(384.4321,112.0115)">
          <path
             d="m 0,0 -257.766,87.295 c -1.118,0.378 -1.722,1.602 -1.344,2.719 l 7.938,23.44 c 0.378,1.118 1.602,1.722 2.719,1.344 L 9.313,27.503 c 1.118,-0.378 1.722,-1.602 1.344,-2.72 L 2.72,1.344 C 2.341,0.226 1.117,-0.378 0,0"
             style="fill:#4eaead;fill-opacity:1;fill-rule:nonzero;stroke:none"
             id="path10271" />
        </g>
        <g
           id="g10273"
           transform="translate(138.5303,114.7362)">
          <path
             d="m 0,0 254.293,86.119 c 1.117,0.378 1.722,1.602 1.343,2.719 l -9.66,28.524 c -0.378,1.117 -1.602,1.722 -2.719,1.344 L -11.035,32.587 c -1.117,-0.378 -1.722,-1.602 -1.343,-2.719 L -2.72,1.344 C -2.341,0.226 -1.117,-0.378 0,0"
             style="fill:#ffffff;fill-opacity:1;fill-rule:nonzero;stroke:none"
             id="path10275" />
        </g>
        <g
           id="g10277"
           transform="translate(138.5322,114.7368)">
          <path
             d="m 0,0 254.291,86.118 c 1.118,0.379 1.722,1.602 1.344,2.72 l -7.733,22.83 c -0.378,1.117 -1.602,1.722 -2.72,1.343 L -9.111,26.892 c -1.118,-0.378 -1.722,-1.602 -1.343,-2.719 L -2.719,1.343 C -2.341,0.226 -1.117,-0.378 0,0"
             style="fill:#4eaead;fill-opacity:1;fill-rule:nonzero;stroke:none"
             id="path10279" />
        </g>
        <g
           id="g10281"
           transform="translate(387.8576,130.7328)">
          <path
             d="m 0,0 c -2.256,-6.434 -9.325,-9.829 -15.756,-7.577 l -99.513,34.883 37.371,13.1 70.321,-24.651 c 3.098,-1.086 5.596,-3.33 7.033,-6.317 C 0.893,6.45 1.086,3.098 0,0 m -4.602,24.239 -59.707,20.93 59.707,20.929 c 11.11,3.896 16.98,16.104 13.086,27.215 -0.652,1.86 -1.555,3.615 -2.683,5.214 -1.432,2.029 -4.236,2.514 -6.266,1.081 -2.028,-1.431 -2.512,-4.236 -1.081,-6.264 0.648,-0.92 1.169,-1.931 1.545,-3.005 C 2.255,83.906 -1.145,76.838 -7.577,74.583 L -195.785,8.608 c -2.343,-0.82 -3.576,-3.385 -2.755,-5.728 0.649,-1.852 2.386,-3.01 4.242,-3.01 0.494,0 0.995,0.081 1.487,0.255 l 64.112,22.473 c 0.266,-0.163 0.551,-0.303 0.858,-0.41 L -18.73,-16.061 c 2.329,-0.816 4.705,-1.204 7.044,-1.204 8.819,0.001 17.092,5.509 20.17,14.291 1.881,5.364 1.551,11.157 -0.925,16.308 -2.478,5.152 -6.797,9.025 -12.161,10.905"
             style="fill:#404041;fill-opacity:1;fill-rule:nonzero;stroke:none"
             id="path10283" />
        </g>
        <g
           id="g10285"
           transform="translate(137.7193,205.3158)">
          <path
             d="m 0,0 c -3.099,1.086 -5.596,3.33 -7.033,6.318 -1.436,2.987 -1.63,6.339 -0.543,9.438 1.086,3.098 3.33,5.596 6.317,7.033 2.989,1.437 6.341,1.63 9.437,0.543 L 107.691,-11.551 70.322,-24.65 Z m 29.278,-74.764 -21.1,-7.396 c -3.099,-1.083 -6.45,-0.892 -9.437,0.544 -2.987,1.437 -5.231,3.934 -6.317,7.033 -1.087,3.098 -0.893,6.45 0.543,9.438 1.437,2.987 3.934,5.231 7.033,6.317 l 234.382,82.16 c 1.953,0.684 4.061,0.863 6.102,0.52 2.445,-0.42 4.768,1.235 5.182,3.683 0.414,2.447 -1.236,4.767 -3.683,5.181 -3.536,0.598 -7.192,0.287 -10.575,-0.899 L 121.088,-6.855 c -0.286,0.182 -0.59,0.343 -0.924,0.46 L 11.153,31.817 C 5.79,33.696 -0.004,33.368 -5.155,30.891 -10.307,28.413 -14.18,24.095 -16.061,18.73 -17.941,13.365 -17.613,7.574 -15.135,2.421 -12.658,-2.73 -8.339,-6.603 -2.974,-8.485 L 56.733,-29.414 -2.974,-50.343 c -5.364,-1.881 -9.684,-5.754 -12.161,-10.906 -2.478,-5.153 -2.806,-10.944 -0.926,-16.308 1.881,-5.365 5.754,-9.684 10.905,-12.161 2.947,-1.418 6.102,-2.132 9.268,-2.132 2.369,0 4.745,0.401 7.041,1.206 l 21.099,7.396 c 2.343,0.821 3.576,3.386 2.755,5.729 -0.821,2.343 -3.385,3.581 -5.729,2.755"
             style="fill:#404041;fill-opacity:1;fill-rule:nonzero;stroke:none"
             id="path10287" />
        </g>
        <g
           id="g10289"
           transform="translate(180.363,135.2364)">
          <path
             d="m 0,0 -1.54,-0.538 c -2.343,-0.821 -3.578,-3.385 -2.758,-5.729 0.648,-1.852 2.386,-3.011 4.243,-3.011 0.493,0 0.993,0.081 1.485,0.254 l 1.54,0.538 c 2.343,0.82 3.578,3.385 2.758,5.728 C 4.907,-0.413 2.34,0.823 0,0"
             style="fill:#404041;fill-opacity:1;fill-rule:nonzero;stroke:none"
             id="path10291" />
        </g>
        <g
           id="g10293"
           transform="translate(207.8865,299.8501)">
          <path
             d="M 0,0 C 1.465,-0.562 3.117,-0.317 4.358,0.643 5.599,1.602 6.25,3.14 6.075,4.699 6.048,4.938 3.998,23.772 6.172,40.023 c 2.052,-3.012 4.606,-5.464 7.661,-6.102 2.054,-0.428 4.131,0.62 5.006,2.528 0.174,0.378 16.235,34.986 42.336,58.213 0.661,-16.388 5.419,-48.714 31.613,-63.117 2.143,-1.177 4.828,-0.43 6.055,1.683 0.213,0.368 0.616,1.09 1.081,2.063 3.784,-8.572 7.403,-21.736 3.619,-36.425 -0.335,-1.308 -0.066,-2.698 0.733,-3.785 0.8,-1.088 2.046,-1.758 3.395,-1.826 0.775,-0.039 4.508,-0.161 8.56,0.811 -1.651,-6.125 -4.44,-14.305 -9,-22.631 -5.313,-9.7 -11.822,-17.569 -19.475,-23.593 15.993,27.021 5.437,40.246 4.901,40.885 -0.825,0.984 -2.14,1.416 -3.383,1.11 -1.248,-0.305 -2.214,-1.291 -2.493,-2.544 -0.446,-2.009 -5.941,-3.949 -11.65,-4.827 C 74.3,8.1 51.68,27.267 50.669,28.11 c -1.097,0.915 -2.65,1.039 -3.877,0.312 -1.228,-0.728 -1.866,-2.149 -1.591,-3.549 2.835,-14.461 -8.105,-34.571 -12.986,-42.617 -1.734,2.761 -3.95,7.46 -5.65,12.188 -0.475,1.324 -1.724,2.214 -3.13,2.231 -1.387,-0.02 -2.677,-0.84 -3.186,-2.151 -6.276,-16.172 -4.137,-34.367 -1.501,-46.135 -0.9,0.899 -1.677,1.729 -2.319,2.445 -0.026,0.031 -0.056,0.063 -0.089,0.096 l -0.313,0.371 c -1.65,1.886 -3.173,3.914 -4.527,6.028 -0.028,0.044 -0.057,0.086 -0.085,0.129 C 5.034,-33.299 -4.682,-16.277 -6.509,3.715 -4.684,2.272 -2.527,0.968 0,0 m 53.532,-66.041 c -10.119,-1.271 -19.021,2.464 -25.784,6.995 -2.102,6.625 -7.002,24.851 -3.733,42.19 2.067,-4.157 4.653,-8.167 7.347,-9.392 1.49,-0.677 3.251,-0.186 4.176,1.163 0.72,1.05 15.352,22.621 16.748,42.1 6.83,-7.615 16.998,-21.82 16.065,-38.128 -0.055,-0.965 0.306,-1.908 0.993,-2.588 0.685,-0.679 1.631,-1.03 2.597,-0.969 2.361,0.158 11.652,1.01 17.255,4.867 1.507,-6.245 1.273,-19.528 -15.441,-40.76 -6.205,-2.73 -12.947,-4.564 -20.223,-5.478 m -44.339,11.5 c 0.281,-0.337 0.447,-0.528 0.447,-0.528 0.053,-0.061 0.119,-0.13 0.186,-0.199 11.603,-12.903 25.852,-20.008 39.792,-20.007 1.684,0 3.365,0.104 5.036,0.313 26.393,3.317 47.353,17.962 60.614,42.355 9.884,18.181 11.987,35.207 12.072,35.923 0.266,2.246 -1.179,4.339 -3.372,4.889 -2.196,0.549 -4.454,-0.616 -5.278,-2.723 -0.564,-1.441 -2.791,-2.329 -5.205,-2.808 4.09,26.958 -11.482,47.435 -12.193,48.355 -1.353,1.744 -3.77,2.248 -5.706,1.191 -1.936,-1.056 -2.82,-3.362 -2.085,-5.442 0.37,-1.052 0.052,-2.871 -0.548,-4.722 -25.557,18.4 -22.78,61.35 -22.747,61.801 0.13,1.756 -0.778,3.427 -2.323,4.274 -1.542,0.846 -3.441,0.713 -4.852,-0.342 C 37.242,88.504 19.698,57.899 13.313,45.557 c -1.492,2.445 -3.14,6.087 -4.231,9.599 -0.569,1.839 -2.246,3.112 -4.17,3.165 -1.941,0.051 -3.67,-1.125 -4.339,-2.93 -4.695,-12.655 -4.709,-30.933 -4.161,-42.035 -2.214,2.623 -3.163,5.122 -3.174,5.15 -0.708,1.987 -2.698,3.218 -4.794,2.952 -2.092,-0.261 -3.721,-1.943 -3.917,-4.044 -2.622,-28.192 11.036,-52.803 19.445,-65.002 1.583,-2.463 3.361,-4.827 5.221,-6.953"
             style="fill:#404041;fill-opacity:1;fill-rule:nonzero;stroke:none"
             id="path10295" />
        </g>
        <g
           id="g10297"
           transform="translate(315.5578,293.1053)">
          <path
             d="m 0,0 c -1.349,0.068 -2.595,0.738 -3.396,1.826 -0.798,1.088 -1.067,2.477 -0.732,3.784 3.783,14.689 0.165,27.855 -3.619,36.426 -0.466,-0.974 -0.869,-1.695 -1.082,-2.063 -1.226,-2.113 -3.912,-2.859 -6.054,-1.683 -26.195,14.403 -30.953,46.729 -31.613,63.116 -26.101,-23.226 -42.163,-57.834 -42.336,-58.212 -0.875,-1.907 -2.953,-2.956 -5.006,-2.528 -3.055,0.638 -5.609,3.09 -7.661,6.101 -2.174,-16.25 -0.123,-35.083 -0.097,-35.323 0.175,-1.559 -0.476,-3.097 -1.717,-4.056 -1.241,-0.96 -2.893,-1.205 -4.358,-0.643 -2.527,0.968 -4.684,2.272 -6.51,3.715 1.828,-19.992 11.544,-37.014 17.924,-46.258 0.03,-0.042 0.058,-0.085 0.085,-0.128 1.355,-2.114 2.878,-4.142 4.528,-6.029 l 0.313,-0.37 c 0.032,-0.033 0.062,-0.066 0.089,-0.096 0.642,-0.716 1.419,-1.546 2.319,-2.446 -2.636,11.77 -4.775,29.964 1.501,46.136 0.509,1.311 1.799,2.131 3.185,2.151 1.407,-0.017 2.656,-0.907 3.131,-2.231 1.7,-4.728 3.915,-9.427 5.65,-12.188 4.881,8.046 15.821,28.157 12.986,42.616 -0.275,1.401 0.362,2.823 1.591,3.55 1.227,0.726 2.78,0.603 3.877,-0.311 1.01,-0.843 23.631,-20.01 24.461,-45.645 5.71,0.879 11.205,2.819 11.651,4.827 0.28,1.253 1.245,2.239 2.493,2.543 1.242,0.306 2.558,-0.125 3.382,-1.109 0.537,-0.64 11.093,-13.863 -4.9,-40.886 7.653,6.025 14.162,13.894 19.475,23.593 4.56,8.327 7.349,16.506 9,22.632 C 4.507,-0.161 0.774,-0.039 0,0"
             style="fill:#e5593b;fill-opacity:1;fill-rule:nonzero;stroke:none"
             id="path10299" />
        </g>
      </g>
    </g>
  </g>
</svg>
